IKResults
version=1
nRows=8
nColumns=79
inDegrees=yes
endheader
time	/jointset/ground_pelvis/pelvis_tilt/value	/jointset/ground_pelvis/pelvis_tilt/speed	/jointset/ground_pelvis/pelvis_list/value	/jointset/ground_pelvis/pelvis_list/speed	/jointset/ground_pelvis/pelvis_rotation/value	/jointset/ground_pelvis/pelvis_rotation/speed	/jointset/ground_pelvis/pelvis_tx/value	/jointset/ground_pelvis/pelvis_tx/speed	/jointset/ground_pelvis/pelvis_ty/value	/jointset/ground_pelvis/pelvis_ty/speed	/jointset/ground_pelvis/pelvis_tz/value	/jointset/ground_pelvis/pelvis_tz/speed	/jointset/hip_r/hip_flexion_r/value	/jointset/hip_r/hip_flexion_r/speed	/jointset/hip_r/hip_adduction_r/value	/jointset/hip_r/hip_adduction_r/speed	/jointset/hip_r/hip_rotation_r/value	/jointset/hip_r/hip_rotation_r/speed	/jointset/walker_knee_r/knee_angle_r/value	/jointset/walker_knee_r/knee_angle_r/speed	/jointset/patellofemoral_r/knee_angle_r_beta/value	/jointset/patellofemoral_r/knee_angle_r_beta/speed	/jointset/ankle_r/ankle_angle_r/value	/jointset/ankle_r/ankle_angle_r/speed	/jointset/subtalar_r/subtalar_angle_r/value	/jointset/subtalar_r/subtalar_angle_r/speed	/jointset/mtp_r/mtp_angle_r/value	/jointset/mtp_r/mtp_angle_r/speed	/jointset/hip_l/hip_flexion_l/value	/jointset/hip_l/hip_flexion_l/speed	/jointset/hip_l/hip_adduction_l/value	/jointset/hip_l/hip_adduction_l/speed	/jointset/hip_l/hip_rotation_l/value	/jointset/hip_l/hip_rotation_l/speed	/jointset/walker_knee_l/knee_angle_l/value	/jointset/walker_knee_l/knee_angle_l/speed	/jointset/patellofemoral_l/knee_angle_l_beta/value	/jointset/patellofemoral_l/knee_angle_l_beta/speed	/jointset/ankle_l/ankle_angle_l/value	/jointset/ankle_l/ankle_angle_l/speed	/jointset/subtalar_l/subtalar_angle_l/value	/jointset/subtalar_l/subtalar_angle_l/speed	/jointset/mtp_l/mtp_angle_l/value	/jointset/mtp_l/mtp_angle_l/speed	/jointset/back/lumbar_extension/value	/jointset/back/lumbar_extension/speed	/jointset/back/lumbar_bending/value	/jointset/back/lumbar_bending/speed	/jointset/back/lumbar_rotation/value	/jointset/back/lumbar_rotation/speed	/jointset/acromial_r/arm_flex_r/value	/jointset/acromial_r/arm_flex_r/speed	/jointset/acromial_r/arm_add_r/value	/jointset/acromial_r/arm_add_r/speed	/jointset/acromial_r/arm_rot_r/value	/jointset/acromial_r/arm_rot_r/speed	/jointset/elbow_r/elbow_flex_r/value	/jointset/elbow_r/elbow_flex_r/speed	/jointset/radioulnar_r/pro_sup_r/value	/jointset/radioulnar_r/pro_sup_r/speed	/jointset/radius_hand_r/wrist_flex_r/value	/jointset/radius_hand_r/wrist_flex_r/speed	/jointset/radius_hand_r/wrist_dev_r/value	/jointset/radius_hand_r/wrist_dev_r/speed	/jointset/acromial_l/arm_flex_l/value	/jointset/acromial_l/arm_flex_l/speed	/jointset/acromial_l/arm_add_l/value	/jointset/acromial_l/arm_add_l/speed	/jointset/acromial_l/arm_rot_l/value	/jointset/acromial_l/arm_rot_l/speed	/jointset/elbow_l/elbow_flex_l/value	/jointset/elbow_l/elbow_flex_l/speed	/jointset/radioulnar_l/pro_sup_l/value	/jointset/radioulnar_l/pro_sup_l/speed	/jointset/radius_hand_l/wrist_flex_l/value	/jointset/radius_hand_l/wrist_flex_l/speed	/jointset/radius_hand_l/wrist_dev_l/value	/jointset/radius_hand_l/wrist_dev_l/speed
      9.12000000	      3.33097589	      0.00000000	     -4.00825118	      0.00000000	     -2.77959783	      0.00000000	      0.00000000	      0.00000000	      0.94000000	      0.00000000	      0.00000000	      0.00000000	     34.99973072	      0.00000000	     -9.84156601	      0.00000000	      0.00000000	      0.00000000	     56.20592865	      0.00000000	      0.98097851	      0.00000000	     -4.19588344	      0.00000000	      0.00000000	      0.00000000	      0.00000000	      0.00000000	     34.99973072	      0.00000000	     -9.84156601	      0.00000000	      0.00000000	      0.00000000	     56.20592865	      0.00000000	      0.98097851	      0.00000000	     -4.19588344	      0.00000000	      0.00000000	      0.00000000	      0.00000000	      0.00000000	      0.66595529	      0.00000000	      1.74253365	      0.00000000	      5.60958886	      0.00000000	     24.88450734	      0.00000000	    -10.98819844	      0.00000000	     11.19981216	      0.00000000	      3.70314390	      0.00000000	     45.23071132	      0.00000000	      0.00000000	      0.00000000	      4.99377346	      0.00000000	     -0.77016418	      0.00000000	     -0.62086155	      0.00000000	      0.32457831	      0.00000000	      0.08836514	      0.00000000	     45.23071132	      0.00000000	      0.00000000	      0.00000000	      4.99377346	      0.00000000
      9.14000000	      3.36535500	      0.00000000	     -3.98816743	      0.00000000	     -2.76724878	      0.00000000	      0.00000000	      0.00000000	      0.94000000	      0.00000000	      0.00000000	      0.00000000	     35.00465784	      0.00000000	     -9.84183482	      0.00000000	      0.00000000	      0.00000000	     56.20737158	      0.00000000	      0.98100370	      0.00000000	     -4.19642353	      0.00000000	      0.00000000	      0.00000000	      0.00000000	      0.00000000	     35.00465784	      0.00000000	     -9.84183482	      0.00000000	      0.00000000	      0.00000000	     56.20737158	      0.00000000	      0.98100370	      0.00000000	     -4.19642353	      0.00000000	      0.00000000	      0.00000000	      0.00000000	      0.00000000	      0.52600057	      0.00000000	      1.69051604	      0.00000000	      5.45622281	      0.00000000	     23.71390224	      0.00000000	    -10.70564602	      0.00000000	     10.88371570	      0.00000000	      3.69821367	      0.00000000	     45.23040185	      0.00000000	      0.00000000	      0.00000000	      4.99379221	      0.00000000	     -0.70445338	      0.00000000	     -0.61326424	      0.00000000	      0.23311527	      0.00000000	      0.08837344	      0.00000000	     45.23040185	      0.00000000	      0.00000000	      0.00000000	      4.99379221	      0.00000000
      9.16000000	      3.41121506	      0.00000000	     -3.95691194	      0.00000000	     -2.76618507	      0.00000000	      0.00000000	      0.00000000	      0.94000000	      0.00000000	      0.00000000	      0.00000000	     35.00864825	      0.00000000	     -9.84205219	      0.00000000	      0.00000000	      0.00000000	     56.20854078	      0.00000000	      0.98102410	      0.00000000	     -4.19686083	      0.00000000	      0.00000000	      0.00000000	      0.00000000	      0.00000000	     35.00864825	      0.00000000	     -9.84205219	      0.00000000	      0.00000000	      0.00000000	     56.20854078	      0.00000000	      0.98102410	      0.00000000	     -4.19686083	      0.00000000	      0.00000000	      0.00000000	      0.00000000	      0.00000000	      0.34427298	      0.00000000	      1.62673819	      0.00000000	      5.29210102	      0.00000000	     22.61565530	      0.00000000	    -10.51198696	      0.00000000	     10.40559741	      0.00000000	      3.78638439	      0.00000000	     45.23015150	      0.00000000	      0.00000000	      0.00000000	      4.99380735	      0.00000000	     -0.61581716	      0.00000000	     -0.60382020	      0.00000000	      0.15164991	      0.00000000	      0.08915775	      0.00000000	     45.23015150	      0.00000000	      0.00000000	      0.00000000	      4.99380735	      0.00000000
      9.18000000	      3.45368196	      0.00000000	     -3.94556720	      0.00000000	     -2.78687088	      0.00000000	      0.00000000	      0.00000000	      0.94000000	      0.00000000	      0.00000000	      0.00000000	     35.01295650	      0.00000000	     -9.84228658	      0.00000000	      0.00000000	      0.00000000	     56.20980350	      0.00000000	      0.98104614	      0.00000000	     -4.19733286	      0.00000000	      0.00000000	      0.00000000	      0.00000000	      0.00000000	     35.01295650	      0.00000000	     -9.84228658	      0.00000000	      0.00000000	      0.00000000	     56.20980350	      0.00000000	      0.98104614	      0.00000000	     -4.19733286	      0.00000000	      0.00000000	      0.00000000	      0.00000000	      0.00000000	      0.17231536	      0.00000000	      1.60870411	      0.00000000	      5.20765015	      0.00000000	     21.30073960	      0.00000000	    -10.31015735	      0.00000000	      9.62494238	      0.00000000	      4.21313176	      0.00000000	     45.22988145	      0.00000000	      0.00000000	      0.00000000	      4.99382366	      0.00000000	     -0.51301128	      0.00000000	     -0.64811345	      0.00000000	      0.07551432	      0.00000000	      0.08974542	      0.00000000	     45.22988145	      0.00000000	      0.00000000	      0.00000000	      4.99382366	      0.00000000
      9.20000000	      3.43642780	      0.00000000	     -3.94754127	      0.00000000	     -2.83384910	      0.00000000	      0.00000000	      0.00000000	      0.94000000	      0.00000000	      0.00000000	      0.00000000	     35.01673563	      0.00000000	     -9.84249199	      0.00000000	      0.00000000	      0.00000000	     56.21091125	      0.00000000	      0.98106548	      0.00000000	     -4.19774687	      0.00000000	      0.00000000	      0.00000000	      0.00000000	      0.00000000	     35.01673563	      0.00000000	     -9.84249199	      0.00000000	      0.00000000	      0.00000000	     56.21091125	      0.00000000	      0.98106548	      0.00000000	     -4.19774687	      0.00000000	      0.00000000	      0.00000000	      0.00000000	      0.00000000	     -0.01822512	      0.00000000	      1.61801904	      0.00000000	      5.16454591	      0.00000000	     20.32075858	      0.00000000	    -10.10471011	      0.00000000	      9.10591632	      0.00000000	      4.21110681	      0.00000000	     45.22964473	      0.00000000	      0.00000000	      0.00000000	      4.99383793	      0.00000000	     -0.33977591	      0.00000000	     -0.65933705	      0.00000000	     -0.02368196	      0.00000000	      0.08986835	      0.00000000	     45.22964473	      0.00000000	      0.00000000	      0.00000000	      4.99383793	      0.00000000
      9.22000000	      3.36677515	      0.00000000	     -3.94989652	      0.00000000	     -2.87693384	      0.00000000	      0.00000000	      0.00000000	      0.94000000	      0.00000000	      0.00000000	      0.00000000	     35.02024119	      0.00000000	     -9.84268238	      0.00000000	      0.00000000	      0.00000000	     56.21193883	      0.00000000	      0.98108341	      0.00000000	     -4.19813087	      0.00000000	      0.00000000	      0.00000000	      0.00000000	      0.00000000	     35.02024119	      0.00000000	     -9.84268238	      0.00000000	      0.00000000	      0.00000000	     56.21193883	      0.00000000	      0.98108341	      0.00000000	     -4.19813087	      0.00000000	      0.00000000	      0.00000000	      0.00000000	      0.00000000	     -0.11339912	      0.00000000	      1.59843730	      0.00000000	      5.03589816	      0.00000000	     19.60187472	      0.00000000	     -9.72972304	      0.00000000	      9.02433099	      0.00000000	      3.92403525	      0.00000000	     45.22942525	      0.00000000	      0.00000000	      0.00000000	      4.99385115	      0.00000000	     -0.22344798	      0.00000000	     -0.66507703	      0.00000000	     -0.14117197	      0.00000000	      0.09013861	      0.00000000	     45.22942525	      0.00000000	      0.00000000	      0.00000000	      4.99385115	      0.00000000
      9.24000000	      3.26069229	      0.00000000	     -3.91324715	      0.00000000	     -2.91053288	      0.00000000	      0.00000000	      0.00000000	      0.94000000	      0.00000000	      0.00000000	      0.00000000	     35.02516867	      0.00000000	     -9.84294987	      0.00000000	      0.00000000	      0.00000000	     56.21338266	      0.00000000	      0.98110861	      0.00000000	     -4.19867064	      0.00000000	      0.00000000	      0.00000000	      0.00000000	      0.00000000	     35.02516867	      0.00000000	     -9.84294987	      0.00000000	      0.00000000	      0.00000000	     56.21338266	      0.00000000	      0.98110861	      0.00000000	     -4.19867064	      0.00000000	      0.00000000	      0.00000000	      0.00000000	      0.00000000	     -0.05006417	      0.00000000	      1.52017441	      0.00000000	      4.81184500	      0.00000000	     18.91765457	      0.00000000	     -9.18253773	      0.00000000	      9.27906466	      0.00000000	      3.37793362	      0.00000000	     45.22911684	      0.00000000	      0.00000000	      0.00000000	      4.99386971	      0.00000000	     -0.16681842	      0.00000000	     -0.77488509	      0.00000000	     -0.38998801	      0.00000000	      0.09040614	      0.00000000	     45.22911684	      0.00000000	      0.00000000	      0.00000000	      4.99386971	      0.00000000
      9.26000000	      3.21715550	      0.00000000	     -3.88709666	      0.00000000	     -2.94774080	      0.00000000	      0.00000000	      0.00000000	      0.94000000	      0.00000000	      0.00000000	      0.00000000	     35.02987244	      0.00000000	     -9.84320487	      0.00000000	      0.00000000	      0.00000000	     56.21476132	      0.00000000	      0.98113267	      0.00000000	     -4.19918578	      0.00000000	      0.00000000	      0.00000000	      0.00000000	      0.00000000	     35.02987244	      0.00000000	     -9.84320487	      0.00000000	      0.00000000	      0.00000000	     56.21476132	      0.00000000	      0.98113267	      0.00000000	     -4.19918578	      0.00000000	      0.00000000	      0.00000000	      0.00000000	      0.00000000	     -0.01168905	      0.00000000	      1.46919774	      0.00000000	      4.61233196	      0.00000000	     18.47538495	      0.00000000	     -8.64522961	      0.00000000	     10.24216682	      0.00000000	      2.35093453	      0.00000000	     45.22882272	      0.00000000	      0.00000000	      0.00000000	      4.99388737	      0.00000000	     -0.16660552	      0.00000000	     -0.89022842	      0.00000000	     -0.54936671	      0.00000000	      0.09053452	      0.00000000	     45.22882272	      0.00000000	      0.00000000	      0.00000000	      4.99388737	      0.00000000
